/* XPM */
static const char * iconEmpty32_xpm[] = {
"32 32 2 1",
" 	c none",
"o	c #222222",
"                                ",
"     oooooooooooooooooooooo     ",
"   oooooooooooooooooooooooooo   ",
"  ooo                      ooo  ",
"  oo                        oo  ",
" oo                          oo ",
" oo                          oo ",
" oo                          oo ",
" oo                          oo ",
" oo                          oo ",
" oo                          oo ",
" oo                          oo ",
" oo                          oo ",
" oo                          oo ",
" oo                          oo ",
" oo                          oo ",
" oo                          oo ",
" oo                          oo ",
" oo                          oo ",
" oo                          oo ",
" oo                          oo ",
" oo                          oo ",
" oo                          oo ",
" oo                          oo ",
" oo                          oo ",
" oo                          oo ",
" oo                          oo ",
"  oo                        oo  ",
"  ooo                      ooo  ",
"   oooooooooooooooooooooooooo   ",
"     oooooooooooooooooooooo     ",
"                                "};
