/* XPM */
static const char * iconEmpty24_xpm[] = {
"24 24 2 1",
" 	c none",
"o	c #222222",
"                        ",
"     oooooooooooooo     ",
"   oooooooooooooooooo   ",
"  ooo              ooo  ",
"  oo                oo  ",
" oo                  oo ",
" oo                  oo ",
" oo                  oo ",
" oo                  oo ",
" oo                  oo ",
" oo                  oo ",
" oo                  oo ",
" oo                  oo ",
" oo                  oo ",
" oo                  oo ",
" oo                  oo ",
" oo                  oo ",
" oo                  oo ",
" oo                  oo ",
"  oo                oo  ",
"  ooo              ooo  ",
"   oooooooooooooooooo   ",
"     oooooooooooooo     ",
"                        "};
